HIERARCHY
ROOT joint1
{
  OFFSET -2.08275 25.3025 0.781633
  CHANNELS 6 Xposition Yposition Zposition Zrotation Xrotation Yrotation
  JOINT joint2
  {
    OFFSET 0 -16 0
    CHANNELS 6 Xposition Yposition Zposition Zrotation Xrotation Yrotation
    End Site
    {
      OFFSET 0 0 0
    }
  }
}
MOTION
Frames:	82
Frame Time:	0.0166667
-2.08991 25.303 0.777097 26.3334 19.0052 -6.0973 0 -16 -2.66454e-015 8.82781e-032 6.36111e-015 -7.95139e-016 
-2.09268 25.2912 0.76916 26.3776 18.9374 -6.24366 -1.77636e-015 -16 0 1.98785e-015 -6.36111e-015 -7.95139e-016 
-2.09785 25.2722 0.754103 26.45 18.824 -6.48709 0 -16 -1.77636e-015 -2.38542e-015 0 -1.59028e-015 
-2.10297 25.2583 0.738297 26.5066 18.7327 -6.68109 0 -16 -1.77636e-015 6.36111e-015 0 -0 
-2.10903 25.2455 0.720143 26.562 18.641 -6.87449 -1.77636e-015 -16 1.77636e-015 3.97569e-015 -3.18055e-015 -0 
-2.11641 25.2337 0.700146 26.616 18.5488 -7.06722 -1.77636e-015 -16 -8.88178e-016 -1.98785e-015 3.18055e-015 -2.38542e-015 
-2.12448 25.2228 0.678381 26.6694 18.4562 -7.25951 0 -16 -1.77636e-015 0 0 -7.95139e-016 
-2.13268 25.2127 0.655032 26.7229 18.3631 -7.45158 1.77636e-015 -16 -1.77636e-015 2.38542e-015 0 7.95139e-016 
-2.14115 25.2035 0.630275 26.7762 18.2698 -7.6434 -1.77636e-015 -16 -8.88178e-016 1.59028e-015 -3.18055e-015 7.95139e-016 
-2.14987 25.195 0.604266 26.8294 18.1759 -7.83491 0 -16 -1.77636e-015 2.38542e-015 3.18055e-015 -0 
-2.15879 25.1873 0.577249 26.8825 18.0819 -8.02632 0 -16 -8.88178e-016 -2.38542e-015 6.36111e-015 -1.59028e-015 
-2.16788 25.1803 0.549455 26.9356 17.9882 -8.21778 3.55271e-015 -16 -8.88178e-016 -3.97569e-016 -6.36111e-015 -0 
-2.17711 25.174 0.521085 26.9886 17.8948 -8.40939 -1.77636e-015 -16 0 -1.98785e-015 -6.36111e-015 -1.59028e-015 
-2.18645 25.1683 0.492396 27.0417 17.8022 -8.60138 -1.77636e-015 -16 -1.77636e-015 -7.95139e-016 -6.36111e-015 -0 
-2.19586 25.1633 0.463454 27.0948 17.7098 -8.79346 -1.77636e-015 -16 -1.77636e-015 -2.78299e-015 3.18055e-015 -0 
-2.20531 25.1588 0.43433 27.1478 17.6171 -8.98535 0 -16 1.77636e-015 -3.97569e-016 -6.36111e-015 1.59028e-015 
-2.21477 25.1549 0.405263 27.2006 17.5245 -9.17721 0 -16 -1.77636e-015 3.57812e-015 6.36111e-015 -3.18055e-015 
-2.2242 25.1515 0.376464 27.2535 17.4321 -9.36914 0 -16 -1.77636e-015 1.98785e-015 -3.18055e-015 -1.59028e-015 
-2.23357 25.1485 0.348083 27.3062 17.3399 -9.56108 0 -16 -1.77636e-015 2.78299e-015 0 -1.59028e-015 
-2.24286 25.1458 0.320282 27.359 17.2477 -9.75303 0 -16 -1.77636e-015 1.98785e-015 0 -0 
-2.25202 25.1437 0.293238 27.4116 17.1556 -9.94498 0 -16 -3.55271e-015 -3.97569e-016 3.18055e-015 -3.18055e-015 
-2.26102 25.1423 0.267127 27.4642 17.0636 -10.1369 0 -16 -1.77636e-015 7.95139e-016 0 -1.59028e-015 
-2.26983 25.1413 0.242119 27.5167 16.9718 -10.3289 -1.77636e-015 -16 0 -0 0 1.59028e-015 
-2.27841 25.1405 0.218383 27.5691 16.88 -10.5209 0 -16 0 -2.78299e-015 -3.18055e-015 -1.59028e-015 
-2.28675 25.1398 0.196094 27.6215 16.7883 -10.7128 0 -16 0 2.38542e-015 -3.18055e-015 -0 
-2.29479 25.1392 0.175426 27.6737 16.6967 -10.9048 -1.77636e-015 -16 -1.77636e-015 -1.98785e-015 -3.18055e-015 -0 
-2.30251 25.1386 0.156555 27.726 16.6052 -11.0968 -1.77636e-015 -16 0 -1.98785e-015 0 -1.59028e-015 
-2.30981 25.1382 0.139653 27.7781 16.5138 -11.2888 1.77636e-015 -16 0 9.14409e-015 0 1.59028e-015 
-2.31674 25.1378 0.124893 27.8302 16.4225 -11.4808 1.77636e-015 -16 0 4.77083e-015 3.18055e-015 -3.18055e-015 
-2.32481 25.1374 0.110312 27.8953 16.3086 -11.7208 0 -16 0 -2.38542e-015 -3.18055e-015 -1.59028e-015 
-2.3295 25.1372 0.102488 27.9341 16.2403 -11.8648 0 -16 0 2.78299e-015 6.36111e-015 -1.59028e-015 
-2.29609 25.1403 0.137287 27.8196 16.4577 -11.437 0 -16 0 -7.95139e-016 -3.18055e-015 -3.18055e-015 
-2.23566 25.1474 0.205314 27.625 16.8205 -10.7238 1.77636e-015 -16 -1.77636e-015 3.97569e-015 3.18055e-015 -1.59028e-015 
-2.17685 25.1569 0.281672 27.4691 17.1127 -10.1548 0 -16 -1.77636e-015 -4.77083e-015 0 -0 
-2.11331 25.1679 0.36831 27.3123 17.4062 -9.58678 0 -16 -1.77636e-015 -1.98785e-015 0 -1.59028e-015 
-2.04741 25.1795 0.460464 27.1548 17.7009 -9.01977 0 -16 0 -1.19271e-015 6.36111e-015 -1.59028e-015 
-1.98155 25.1903 0.553372 26.9965 17.9968 -8.45376 -1.77636e-015 -16 -1.77636e-015 -7.95139e-016 0 -1.59028e-015 
-1.9181 25.2004 0.642272 26.8375 18.2938 -7.88876 0 -16 0 -3.18055e-015 0 -0 
-1.85946 25.2058 0.722399 26.6777 18.592 -7.32475 0 -16 -8.88178e-016 1.19271e-015 3.18055e-015 7.95139e-016 
-1.79933 25.2054 0.797586 26.4784 18.9667 -6.62178 0 -16 8.88178e-016 3.18055e-015 -3.18055e-015 -0 
-1.76612 25.2049 0.837283 26.3563 19.1915 -6.19973 -1.77636e-015 -16 -8.88178e-016 3.18055e-015 -3.18055e-015 1.59028e-015 
-1.77602 25.2056 0.823231 26.3943 19.0939 -6.32764 1.77636e-015 -16 -8.88178e-016 -1.19271e-015 -6.36111e-015 -7.95139e-016 
-1.79324 25.2066 0.798335 26.4566 18.9313 -6.54067 0 -16 -2.66454e-015 1.19271e-015 3.18055e-015 -7.95139e-016 
-1.80847 25.2071 0.775452 26.5057 18.8013 -6.71108 0 -16 -8.88178e-016 -1.98785e-015 3.18055e-015 -2.38542e-015 
-1.82474 25.2073 0.750531 26.5546 18.6715 -6.88158 0 -16 0 3.57812e-015 6.36111e-015 -0 
-1.84203 25.2071 0.723752 26.6038 18.5418 -7.05232 0 -16 -1.77636e-015 -7.95139e-016 -3.18055e-015 -0 
-1.8602 25.2063 0.69529 26.653 18.4123 -7.22322 1.77636e-015 -16 -8.88178e-016 4.37326e-015 6.36111e-015 -0 
-1.87916 25.2045 0.665268 26.7021 18.2825 -7.39406 1.77636e-015 -16 -1.77636e-015 3.97569e-015 0 2.38542e-015 
-1.89881 25.2022 0.634029 26.7511 18.1535 -7.56536 1.77636e-015 -16 -8.88178e-016 1.59028e-015 3.18055e-015 -0 
-1.91907 25.1998 0.602012 26.8003 18.0265 -7.73785 0 -16 -2.66454e-015 5.96354e-015 3.18055e-015 -7.95139e-016 
-1.93986 25.1971 0.569052 26.8494 17.8998 -7.91058 -3.55271e-015 -16 -3.55271e-015 8.82781e-032 3.18055e-015 -1.59028e-015 
-1.96108 25.1941 0.535041 26.8982 17.772 -8.0827 0 -16 0 -3.18055e-015 0 -0 
-1.98265 25.1908 0.500255 26.9467 17.6435 -8.25452 1.77636e-015 -16 0 -1.19271e-015 -3.18055e-015 -1.59028e-015 
-2.00448 25.1872 0.464871 26.995 17.5144 -8.42604 0 -16 0 7.55382e-015 1.27222e-014 -0 
-2.02649 25.1836 0.429068 27.0431 17.3846 -8.59726 1.77636e-015 -16 0 -1.59028e-015 -3.18055e-015 -0 
-2.04857 25.1798 0.392928 27.0909 17.2537 -8.76791 0 -16 8.88178e-016 1.19271e-015 -3.18055e-015 1.59028e-015 
-2.07065 25.176 0.356906 27.1386 17.1232 -8.93879 0 -16 -8.88178e-016 -3.97569e-016 0 -0 
-2.09263 25.1721 0.321515 27.1864 16.9947 -9.11086 0 -16 -8.88178e-016 2.78299e-015 3.18055e-015 -1.59028e-015 
-2.11443 25.1682 0.286669 27.2342 16.8669 -9.28337 -1.77636e-015 -16 -4.44089e-015 5.1684e-015 0 -3.18055e-015 
-2.13595 25.1643 0.252379 27.2818 16.739 -9.45585 -1.77636e-015 -16 8.88178e-016 0 0 -0 
-2.15711 25.1606 0.218878 27.3293 16.6112 -9.62847 0 -16 -8.88178e-016 3.97569e-015 -3.18055e-015 -4.77083e-015 
-2.17783 25.1569 0.186342 27.3767 16.4836 -9.80121 1.77636e-015 -16 0 1.19271e-015 -3.18055e-015 -0 
-2.198 25.1534 0.154948 27.424 16.3561 -9.97409 0 -16 0 -2.38542e-015 0 -1.59028e-015 
-2.21755 25.1501 0.124872 27.4711 16.2288 -10.1471 -1.77636e-015 -16 -8.88178e-016 2.78299e-015 3.18055e-015 -1.59028e-015 
-2.23639 25.147 0.0962877 27.518 16.1016 -10.3202 1.77636e-015 -16 -1.77636e-015 1.19271e-015 0 -1.59028e-015 
-2.25442 25.1442 0.0693704 27.5649 15.9746 -10.4935 -1.77636e-015 -16 -1.77636e-015 -0 -3.18055e-015 -0 
-2.27156 25.1418 0.0442996 27.6116 15.8477 -10.6669 0 -16 0 3.18055e-015 0 -1.59028e-015 
-2.28772 25.1399 0.0212559 27.6581 15.721 -10.8404 1.77636e-015 -16 0 -7.95139e-016 3.18055e-015 -0 
-2.30282 25.1384 0.000410616 27.7046 15.5945 -11.0141 -1.77636e-015 -16 -1.77636e-015 -1.59028e-015 0 -0 
-2.31975 25.1369 -0.0216829 27.7625 15.4365 -11.2314 0 -16 -8.88178e-016 -4.37326e-015 0 -0 
-2.32945 25.1361 -0.0339902 27.7969 15.3418 -11.3617 1.77636e-015 -16 -1.77636e-015 -7.95139e-016 -6.36111e-015 -0 
-2.31429 25.139 0.00774161 27.6926 15.6141 -10.9679 0 -16 -2.66454e-015 2.78299e-015 3.18055e-015 -1.59028e-015 
-2.28722 25.1466 0.087018 27.5141 16.0687 -10.3108 -1.77636e-015 -16 0 3.18055e-015 0 -1.59028e-015 
-2.26161 25.1583 0.171735 27.3712 16.4336 -9.78536 -1.77636e-015 -16 -2.66454e-015 -3.18055e-015 0 -1.59028e-015 
-2.23422 25.1734 0.266366 27.2275 16.7995 -9.25995 0 -16 -8.88178e-016 -5.56597e-015 0 -0 
-2.20594 25.1914 0.36624 27.0828 17.1664 -8.73452 0 -16 -8.88178e-016 3.97569e-016 0 -3.18055e-015 
-2.17767 25.2117 0.466678 26.9373 17.5342 -8.20902 1.77636e-015 -16 -2.66454e-015 -3.97569e-016 0 -0 
-2.15033 25.2335 0.562935 26.7909 17.9024 -7.68313 0 -16 8.88178e-016 3.97569e-016 0 -7.95139e-016 
-2.1248 25.2563 0.650539 26.6438 18.2722 -7.15762 0 -16 0 7.95139e-015 6.36111e-015 2.38542e-015 
-2.09784 25.2851 0.735771 26.4604 18.7398 -6.50287 1.77636e-015 -16 -3.55271e-015 1.19271e-015 0 -1.59028e-015 
-2.08275 25.3025 0.781633 26.3476 19.0212 -6.10962 1.77636e-015 -16 0 -3.97569e-016 0 7.95139e-016 
-2.08275 25.3025 0.781633 26.3476 19.0212 -6.10962 1.77636e-015 -16 0 -3.97569e-016 0 7.95139e-016 
